<mxfile host="app.diagrams.net" agent="Mozilla/5.0 (Windows NT 10.0; Win64; x64) AppleWebKit/537.36 (KHTML, like Gecko) Chrome/130.0.0.0 Safari/537.36" version="24.8.3">
  <diagram name="Sida-1" id="wAfrRmmbT0s3Fn0dVlCG">
    <mxGraphModel dx="1323" dy="820" grid="1" gridSize="10" guides="1" tooltips="1" connect="1" arrows="1" fold="1" page="1" pageScale="1" pageWidth="827" pageHeight="1169" math="0" shadow="0">
      <root>
        <mxCell id="0" />
        <mxCell id="1" parent="0" />
        <mxCell id="q-lB-3Xcl8ETy9aZiQRk-1" value="" style="rounded=0;whiteSpace=wrap;html=1;" vertex="1" parent="1">
          <mxGeometry x="40" y="40" width="760" height="1090" as="geometry" />
        </mxCell>
        <mxCell id="q-lB-3Xcl8ETy9aZiQRk-60" value="" style="rounded=0;whiteSpace=wrap;html=1;fillColor=#e1d5e7;strokeColor=#9673a6;" vertex="1" parent="1">
          <mxGeometry x="60" y="110" width="170" height="190" as="geometry" />
        </mxCell>
        <mxCell id="q-lB-3Xcl8ETy9aZiQRk-4" value="" style="rounded=0;whiteSpace=wrap;html=1;" vertex="1" parent="1">
          <mxGeometry x="250" y="50" width="540" height="1070" as="geometry" />
        </mxCell>
        <mxCell id="q-lB-3Xcl8ETy9aZiQRk-5" value="" style="rounded=0;whiteSpace=wrap;html=1;" vertex="1" parent="1">
          <mxGeometry x="60" y="60" width="170" height="40" as="geometry" />
        </mxCell>
        <mxCell id="q-lB-3Xcl8ETy9aZiQRk-6" value="" style="rounded=0;whiteSpace=wrap;html=1;fillColor=#dae8fc;strokeColor=#6c8ebf;" vertex="1" parent="1">
          <mxGeometry x="60" y="110" width="170" height="30" as="geometry" />
        </mxCell>
        <mxCell id="q-lB-3Xcl8ETy9aZiQRk-9" value="A" style="rounded=0;whiteSpace=wrap;html=1;fillColor=#fff2cc;strokeColor=#d6b656;" vertex="1" parent="1">
          <mxGeometry x="65" y="115" width="20" height="20" as="geometry" />
        </mxCell>
        <mxCell id="q-lB-3Xcl8ETy9aZiQRk-10" value="" style="rounded=0;whiteSpace=wrap;html=1;" vertex="1" parent="1">
          <mxGeometry x="90" y="115" width="135" height="20" as="geometry" />
        </mxCell>
        <mxCell id="q-lB-3Xcl8ETy9aZiQRk-11" value="" style="rounded=0;whiteSpace=wrap;html=1;fillColor=#dae8fc;strokeColor=#6c8ebf;" vertex="1" parent="1">
          <mxGeometry x="60" y="150" width="170" height="30" as="geometry" />
        </mxCell>
        <mxCell id="q-lB-3Xcl8ETy9aZiQRk-12" value="B" style="rounded=0;whiteSpace=wrap;html=1;fillColor=#fff2cc;strokeColor=#d6b656;" vertex="1" parent="1">
          <mxGeometry x="65" y="155" width="20" height="20" as="geometry" />
        </mxCell>
        <mxCell id="q-lB-3Xcl8ETy9aZiQRk-13" value="" style="rounded=0;whiteSpace=wrap;html=1;" vertex="1" parent="1">
          <mxGeometry x="90" y="155" width="135" height="20" as="geometry" />
        </mxCell>
        <mxCell id="q-lB-3Xcl8ETy9aZiQRk-14" value="" style="rounded=0;whiteSpace=wrap;html=1;fillColor=#dae8fc;strokeColor=#6c8ebf;" vertex="1" parent="1">
          <mxGeometry x="60" y="190" width="170" height="30" as="geometry" />
        </mxCell>
        <mxCell id="q-lB-3Xcl8ETy9aZiQRk-15" value="C" style="rounded=0;whiteSpace=wrap;html=1;fillColor=#fff2cc;strokeColor=#d6b656;" vertex="1" parent="1">
          <mxGeometry x="65" y="195" width="20" height="20" as="geometry" />
        </mxCell>
        <mxCell id="q-lB-3Xcl8ETy9aZiQRk-16" value="" style="rounded=0;whiteSpace=wrap;html=1;" vertex="1" parent="1">
          <mxGeometry x="90" y="195" width="135" height="20" as="geometry" />
        </mxCell>
        <mxCell id="q-lB-3Xcl8ETy9aZiQRk-17" value="" style="rounded=0;whiteSpace=wrap;html=1;fillColor=#dae8fc;strokeColor=#6c8ebf;" vertex="1" parent="1">
          <mxGeometry x="60" y="230" width="170" height="30" as="geometry" />
        </mxCell>
        <mxCell id="q-lB-3Xcl8ETy9aZiQRk-18" value="E" style="rounded=0;whiteSpace=wrap;html=1;fillColor=#fff2cc;strokeColor=#d6b656;" vertex="1" parent="1">
          <mxGeometry x="65" y="235" width="20" height="20" as="geometry" />
        </mxCell>
        <mxCell id="q-lB-3Xcl8ETy9aZiQRk-19" value="" style="rounded=0;whiteSpace=wrap;html=1;" vertex="1" parent="1">
          <mxGeometry x="90" y="235" width="135" height="20" as="geometry" />
        </mxCell>
        <mxCell id="q-lB-3Xcl8ETy9aZiQRk-20" value="" style="rounded=0;whiteSpace=wrap;html=1;fillColor=#dae8fc;strokeColor=#6c8ebf;" vertex="1" parent="1">
          <mxGeometry x="60" y="270" width="170" height="30" as="geometry" />
        </mxCell>
        <mxCell id="q-lB-3Xcl8ETy9aZiQRk-21" value="F" style="rounded=0;whiteSpace=wrap;html=1;fillColor=#fff2cc;strokeColor=#d6b656;" vertex="1" parent="1">
          <mxGeometry x="65" y="275" width="20" height="20" as="geometry" />
        </mxCell>
        <mxCell id="q-lB-3Xcl8ETy9aZiQRk-22" value="" style="rounded=0;whiteSpace=wrap;html=1;" vertex="1" parent="1">
          <mxGeometry x="90" y="275" width="135" height="20" as="geometry" />
        </mxCell>
        <mxCell id="q-lB-3Xcl8ETy9aZiQRk-23" value="" style="rounded=0;whiteSpace=wrap;html=1;" vertex="1" parent="1">
          <mxGeometry x="260" y="60" width="520" height="40" as="geometry" />
        </mxCell>
        <mxCell id="q-lB-3Xcl8ETy9aZiQRk-24" value="" style="rounded=0;whiteSpace=wrap;html=1;" vertex="1" parent="1">
          <mxGeometry x="260" y="125" width="520" height="25" as="geometry" />
        </mxCell>
        <mxCell id="q-lB-3Xcl8ETy9aZiQRk-25" value="" style="rounded=0;whiteSpace=wrap;html=1;fillColor=#f8cecc;strokeColor=#b85450;fillStyle=auto;" vertex="1" parent="1">
          <mxGeometry x="265" y="130" width="45" height="15" as="geometry" />
        </mxCell>
        <mxCell id="q-lB-3Xcl8ETy9aZiQRk-26" value="" style="rounded=0;whiteSpace=wrap;html=1;fillColor=#f8cecc;strokeColor=#b85450;fillStyle=auto;" vertex="1" parent="1">
          <mxGeometry x="315" y="130" width="45" height="15" as="geometry" />
        </mxCell>
        <mxCell id="q-lB-3Xcl8ETy9aZiQRk-27" value="" style="rounded=0;whiteSpace=wrap;html=1;fillColor=#f8cecc;strokeColor=#b85450;fillStyle=auto;" vertex="1" parent="1">
          <mxGeometry x="365" y="130" width="45" height="15" as="geometry" />
        </mxCell>
        <mxCell id="q-lB-3Xcl8ETy9aZiQRk-28" value="" style="rounded=0;whiteSpace=wrap;html=1;fillColor=#647687;strokeColor=#314354;fontColor=#ffffff;" vertex="1" parent="1">
          <mxGeometry x="260" y="110" width="70" height="10" as="geometry" />
        </mxCell>
        <mxCell id="q-lB-3Xcl8ETy9aZiQRk-29" value="" style="rounded=0;whiteSpace=wrap;html=1;fillColor=#647687;strokeColor=#314354;fontColor=#ffffff;" vertex="1" parent="1">
          <mxGeometry x="260" y="160" width="70" height="10" as="geometry" />
        </mxCell>
        <mxCell id="q-lB-3Xcl8ETy9aZiQRk-30" value="" style="rounded=0;whiteSpace=wrap;html=1;" vertex="1" parent="1">
          <mxGeometry x="260" y="175" width="520" height="90" as="geometry" />
        </mxCell>
        <mxCell id="q-lB-3Xcl8ETy9aZiQRk-31" value="" style="rounded=0;whiteSpace=wrap;html=1;" vertex="1" parent="1">
          <mxGeometry x="265" y="180" width="115" height="80" as="geometry" />
        </mxCell>
        <mxCell id="q-lB-3Xcl8ETy9aZiQRk-32" value="" style="rounded=0;whiteSpace=wrap;html=1;fillColor=#fff2cc;strokeColor=#d6b656;" vertex="1" parent="1">
          <mxGeometry x="272.5" y="185" width="45" height="45" as="geometry" />
        </mxCell>
        <mxCell id="q-lB-3Xcl8ETy9aZiQRk-33" value="" style="rounded=0;whiteSpace=wrap;html=1;fillColor=#647687;strokeColor=#314354;fontColor=#ffffff;" vertex="1" parent="1">
          <mxGeometry x="272.5" y="235" width="70" height="10" as="geometry" />
        </mxCell>
        <mxCell id="q-lB-3Xcl8ETy9aZiQRk-34" value="" style="rounded=0;whiteSpace=wrap;html=1;fillColor=#647687;strokeColor=#314354;fontColor=#ffffff;" vertex="1" parent="1">
          <mxGeometry x="272.5" y="250" width="27.5" height="5" as="geometry" />
        </mxCell>
        <mxCell id="q-lB-3Xcl8ETy9aZiQRk-35" value="" style="rounded=0;whiteSpace=wrap;html=1;fillColor=#647687;strokeColor=#314354;fontColor=#ffffff;" vertex="1" parent="1">
          <mxGeometry x="302.5" y="250" width="27.5" height="5" as="geometry" />
        </mxCell>
        <mxCell id="q-lB-3Xcl8ETy9aZiQRk-40" value="" style="rounded=0;whiteSpace=wrap;html=1;" vertex="1" parent="1">
          <mxGeometry x="390" y="180" width="115" height="80" as="geometry" />
        </mxCell>
        <mxCell id="q-lB-3Xcl8ETy9aZiQRk-36" value="" style="rounded=0;whiteSpace=wrap;html=1;fillColor=#fff2cc;strokeColor=#d6b656;" vertex="1" parent="1">
          <mxGeometry x="397.5" y="185" width="45" height="45" as="geometry" />
        </mxCell>
        <mxCell id="q-lB-3Xcl8ETy9aZiQRk-37" value="" style="rounded=0;whiteSpace=wrap;html=1;fillColor=#647687;strokeColor=#314354;fontColor=#ffffff;" vertex="1" parent="1">
          <mxGeometry x="397.5" y="235" width="70" height="10" as="geometry" />
        </mxCell>
        <mxCell id="q-lB-3Xcl8ETy9aZiQRk-38" value="" style="rounded=0;whiteSpace=wrap;html=1;fillColor=#647687;strokeColor=#314354;fontColor=#ffffff;" vertex="1" parent="1">
          <mxGeometry x="397.5" y="250" width="27.5" height="5" as="geometry" />
        </mxCell>
        <mxCell id="q-lB-3Xcl8ETy9aZiQRk-39" value="" style="rounded=0;whiteSpace=wrap;html=1;fillColor=#647687;strokeColor=#314354;fontColor=#ffffff;" vertex="1" parent="1">
          <mxGeometry x="427.5" y="250" width="27.5" height="5" as="geometry" />
        </mxCell>
        <mxCell id="q-lB-3Xcl8ETy9aZiQRk-41" value="" style="rounded=0;whiteSpace=wrap;html=1;fillColor=#647687;strokeColor=#314354;fontColor=#ffffff;" vertex="1" parent="1">
          <mxGeometry x="260" y="275" width="70" height="10" as="geometry" />
        </mxCell>
        <mxCell id="q-lB-3Xcl8ETy9aZiQRk-42" value="" style="rounded=0;whiteSpace=wrap;html=1;" vertex="1" parent="1">
          <mxGeometry x="260" y="290" width="520" height="45" as="geometry" />
        </mxCell>
        <mxCell id="q-lB-3Xcl8ETy9aZiQRk-43" value="" style="rounded=0;whiteSpace=wrap;html=1;" vertex="1" parent="1">
          <mxGeometry x="265" y="295" width="125" height="35" as="geometry" />
        </mxCell>
        <mxCell id="q-lB-3Xcl8ETy9aZiQRk-45" value="" style="rounded=0;whiteSpace=wrap;html=1;fillColor=#fff2cc;strokeColor=#d6b656;" vertex="1" parent="1">
          <mxGeometry x="270" y="300" width="25" height="25" as="geometry" />
        </mxCell>
        <mxCell id="q-lB-3Xcl8ETy9aZiQRk-46" value="" style="rounded=0;whiteSpace=wrap;html=1;fillColor=#647687;strokeColor=#314354;fontColor=#ffffff;" vertex="1" parent="1">
          <mxGeometry x="300" y="300" width="70" height="10" as="geometry" />
        </mxCell>
        <mxCell id="q-lB-3Xcl8ETy9aZiQRk-47" value="" style="rounded=0;whiteSpace=wrap;html=1;fillColor=#647687;strokeColor=#314354;fontColor=#ffffff;" vertex="1" parent="1">
          <mxGeometry x="300" y="315" width="30" height="5" as="geometry" />
        </mxCell>
        <mxCell id="q-lB-3Xcl8ETy9aZiQRk-48" value="" style="rounded=0;whiteSpace=wrap;html=1;fillColor=#647687;strokeColor=#314354;fontColor=#ffffff;" vertex="1" parent="1">
          <mxGeometry x="335" y="315" width="30" height="5" as="geometry" />
        </mxCell>
        <mxCell id="q-lB-3Xcl8ETy9aZiQRk-58" value="" style="rounded=0;whiteSpace=wrap;html=1;" vertex="1" parent="1">
          <mxGeometry x="397.5" y="295" width="125" height="35" as="geometry" />
        </mxCell>
        <mxCell id="q-lB-3Xcl8ETy9aZiQRk-55" value="" style="rounded=0;whiteSpace=wrap;html=1;fillColor=#647687;strokeColor=#314354;fontColor=#ffffff;" vertex="1" parent="1">
          <mxGeometry x="432.5" y="300" width="70" height="10" as="geometry" />
        </mxCell>
        <mxCell id="q-lB-3Xcl8ETy9aZiQRk-56" value="" style="rounded=0;whiteSpace=wrap;html=1;fillColor=#647687;strokeColor=#314354;fontColor=#ffffff;" vertex="1" parent="1">
          <mxGeometry x="467.5" y="315" width="30" height="5" as="geometry" />
        </mxCell>
        <mxCell id="q-lB-3Xcl8ETy9aZiQRk-57" value="" style="rounded=0;whiteSpace=wrap;html=1;fillColor=#647687;strokeColor=#314354;fontColor=#ffffff;" vertex="1" parent="1">
          <mxGeometry x="432.5" y="315" width="30" height="5" as="geometry" />
        </mxCell>
        <mxCell id="q-lB-3Xcl8ETy9aZiQRk-59" value="" style="rounded=0;whiteSpace=wrap;html=1;fillColor=#fff2cc;strokeColor=#d6b656;" vertex="1" parent="1">
          <mxGeometry x="402.5" y="300" width="25" height="25" as="geometry" />
        </mxCell>
        <mxCell id="q-lB-3Xcl8ETy9aZiQRk-61" value="" style="rounded=0;whiteSpace=wrap;html=1;fillColor=#e1d5e7;strokeColor=#9673a6;" vertex="1" parent="1">
          <mxGeometry x="60" y="920" width="170" height="190" as="geometry" />
        </mxCell>
        <mxCell id="q-lB-3Xcl8ETy9aZiQRk-63" value="" style="rounded=0;whiteSpace=wrap;html=1;fillColor=#dae8fc;strokeColor=#6c8ebf;" vertex="1" parent="1">
          <mxGeometry x="60" y="1000" width="170" height="30" as="geometry" />
        </mxCell>
        <mxCell id="q-lB-3Xcl8ETy9aZiQRk-62" value="G" style="rounded=0;whiteSpace=wrap;html=1;fillColor=#fff2cc;strokeColor=#d6b656;" vertex="1" parent="1">
          <mxGeometry x="65" y="1005" width="20" height="20" as="geometry" />
        </mxCell>
        <mxCell id="q-lB-3Xcl8ETy9aZiQRk-64" value="" style="rounded=0;whiteSpace=wrap;html=1;" vertex="1" parent="1">
          <mxGeometry x="90" y="1005" width="135" height="20" as="geometry" />
        </mxCell>
        <mxCell id="q-lB-3Xcl8ETy9aZiQRk-68" value="" style="rounded=0;whiteSpace=wrap;html=1;fillColor=#dae8fc;strokeColor=#6c8ebf;" vertex="1" parent="1">
          <mxGeometry x="60" y="1040" width="170" height="30" as="geometry" />
        </mxCell>
        <mxCell id="q-lB-3Xcl8ETy9aZiQRk-69" value="H" style="rounded=0;whiteSpace=wrap;html=1;fillColor=#fff2cc;strokeColor=#d6b656;" vertex="1" parent="1">
          <mxGeometry x="65" y="1045" width="20" height="20" as="geometry" />
        </mxCell>
        <mxCell id="q-lB-3Xcl8ETy9aZiQRk-70" value="" style="rounded=0;whiteSpace=wrap;html=1;" vertex="1" parent="1">
          <mxGeometry x="90" y="1045" width="135" height="20" as="geometry" />
        </mxCell>
        <mxCell id="q-lB-3Xcl8ETy9aZiQRk-75" value="" style="rounded=0;whiteSpace=wrap;html=1;fillColor=#dae8fc;strokeColor=#6c8ebf;" vertex="1" parent="1">
          <mxGeometry x="60" y="1080" width="170" height="30" as="geometry" />
        </mxCell>
        <mxCell id="q-lB-3Xcl8ETy9aZiQRk-74" value="I" style="rounded=0;whiteSpace=wrap;html=1;fillColor=#fff2cc;strokeColor=#d6b656;" vertex="1" parent="1">
          <mxGeometry x="65" y="1085" width="20" height="20" as="geometry" />
        </mxCell>
        <mxCell id="q-lB-3Xcl8ETy9aZiQRk-76" value="" style="rounded=0;whiteSpace=wrap;html=1;" vertex="1" parent="1">
          <mxGeometry x="90" y="1085" width="135" height="20" as="geometry" />
        </mxCell>
        <mxCell id="q-lB-3Xcl8ETy9aZiQRk-77" value="" style="rounded=0;whiteSpace=wrap;html=1;" vertex="1" parent="1">
          <mxGeometry x="260" y="365" width="520" height="145" as="geometry" />
        </mxCell>
        <mxCell id="q-lB-3Xcl8ETy9aZiQRk-78" value="" style="rounded=0;whiteSpace=wrap;html=1;fillColor=#647687;strokeColor=#314354;fontColor=#ffffff;" vertex="1" parent="1">
          <mxGeometry x="260" y="350" width="70" height="10" as="geometry" />
        </mxCell>
        <mxCell id="q-lB-3Xcl8ETy9aZiQRk-79" value="" style="rounded=0;whiteSpace=wrap;html=1;" vertex="1" parent="1">
          <mxGeometry x="260" y="365" width="520" height="15" as="geometry" />
        </mxCell>
        <mxCell id="q-lB-3Xcl8ETy9aZiQRk-81" value="" style="rounded=0;whiteSpace=wrap;html=1;fillColor=#dae8fc;strokeColor=#6c8ebf;" vertex="1" parent="1">
          <mxGeometry x="260" y="385" width="520" height="30" as="geometry" />
        </mxCell>
        <mxCell id="q-lB-3Xcl8ETy9aZiQRk-80" value="A" style="rounded=0;whiteSpace=wrap;html=1;fillColor=#fff2cc;strokeColor=#d6b656;" vertex="1" parent="1">
          <mxGeometry x="265" y="390" width="20" height="20" as="geometry" />
        </mxCell>
        <mxCell id="q-lB-3Xcl8ETy9aZiQRk-82" value="" style="rounded=0;whiteSpace=wrap;html=1;" vertex="1" parent="1">
          <mxGeometry x="290" y="390" width="480" height="20" as="geometry" />
        </mxCell>
        <mxCell id="q-lB-3Xcl8ETy9aZiQRk-84" value="" style="rounded=0;whiteSpace=wrap;html=1;fillColor=#dae8fc;strokeColor=#6c8ebf;" vertex="1" parent="1">
          <mxGeometry x="260" y="415" width="520" height="30" as="geometry" />
        </mxCell>
        <mxCell id="q-lB-3Xcl8ETy9aZiQRk-83" value="" style="rounded=0;whiteSpace=wrap;html=1;" vertex="1" parent="1">
          <mxGeometry x="290" y="420" width="480" height="20" as="geometry" />
        </mxCell>
        <mxCell id="q-lB-3Xcl8ETy9aZiQRk-85" value="B" style="rounded=0;whiteSpace=wrap;html=1;fillColor=#fff2cc;strokeColor=#d6b656;" vertex="1" parent="1">
          <mxGeometry x="265" y="420" width="20" height="20" as="geometry" />
        </mxCell>
      </root>
    </mxGraphModel>
  </diagram>
</mxfile>
